<?xml version="1.0" encoding="utf-8"?>
<!-- Generator: Adobe Illustrator 24.3.0, SVG Export Plug-In . SVG Version: 6.00 Build 0)  -->
<svg version="1.1" id="Слой_1" xmlns="http://www.w3.org/2000/svg" xmlns:xlink="http://www.w3.org/1999/xlink" x="0px" y="0px"
	 viewBox="0 0 500 500" style="enable-background:new 0 0 500 500;" xml:space="preserve">
<style type="text/css">
	.st0{fill:#FFFFFF;}
</style>
<g>
	<path d="M467.68,198.38c-72.46,40.44-144.93,80.88-217.39,121.32c-2.44,1.36-5.42,1.34-7.84-0.05
		c-70.16-40.39-140.32-80.77-210.47-121.16c-5.49-3.16-5.26-11.16,0.41-13.99l215.7-107.78c2.25-1.12,4.9-1.12,7.15,0.02
		c70.72,35.87,141.44,71.75,212.16,107.62C473.07,187.23,473.23,195.28,467.68,198.38z"/>
	<polygon points="188.6,383.63 245.69,415.5 361.21,347.78 357.23,288.03 	"/>
	<path d="M225.11,335.83c-31.87-18.37-63.73-36.74-95.6-55.1c0.89,22.13,1.77,44.26,2.66,66.39c12.84,7.3,25.67,14.61,38.51,21.91
		L225.11,335.83z"/>
	<path d="M417.64,246.21c-10.18,28.77-20.36,57.54-30.54,86.31c11.73-6.86,23.46-13.72,35.19-20.58
		C420.74,290.02,419.19,268.12,417.64,246.21z"/>
</g>
<g>
	<path class="st0" d="M319.46,185.2c0,5.27,0,10.53,0,15.8c-0.06,0.34-0.12,0.67-0.17,1.01c-0.31,2.15-0.7,4.29-1.21,6.41
		c-1.81,7.56-4.88,14.58-9.18,21.06c-3.18,4.79-6.92,9.09-11.21,12.91c-5.29,4.7-11.17,8.48-17.66,11.33
		c-4.75,2.09-9.69,3.6-14.79,4.53c-2.19,0.4-4.4,0.69-6.62,0.88c-1.49,0.13-2.99,0.19-4.48,0.28c-0.21,0.01-0.41,0.06-0.62,0.09
		c-0.38,0-0.77,0-1.15,0c-0.59-0.07-1.17-0.17-1.76-0.19c-1.9-0.06-3.79-0.21-5.68-0.43c-2.36-0.27-4.69-0.67-7-1.2
		c-6.33-1.44-12.32-3.75-17.97-6.94c-6.37-3.59-12.01-8.1-16.9-13.54c-3.73-4.14-6.9-8.67-9.48-13.6
		c-1.76-3.35-3.21-6.81-4.36-10.37c-1.16-3.6-1.68-6.32-2.26-9.3l0,0c-1.68-6.83-0.54-18.88,0-21.66c0.6-3.1,1.05-5.38,1.99-8.44
		c1.83-5.99,4.47-11.6,7.91-16.83c3.23-4.92,7.05-9.34,11.46-13.25c5.12-4.55,10.8-8.23,17.05-11.04c4.72-2.13,9.63-3.68,14.71-4.67
		c1.97-0.38,3.94-0.69,5.94-0.86c1.46-0.12,2.92-0.22,4.38-0.33c0.21-0.02,0.41-0.07,0.61-0.11c1.33,0,2.65,0,3.98,0
		c0.07,0.02,0.13,0.06,0.2,0.07c0.61,0.05,1.21,0.09,1.82,0.14c1.58,0.14,3.16,0.26,4.73,0.44c2.25,0.25,4.48,0.67,6.68,1.19
		c6.75,1.59,13.1,4.15,19.06,7.71c4.3,2.56,8.26,5.58,11.88,9.02c2.05,1.95,3.96,4.02,5.75,6.21c3.38,4.16,6.22,8.65,8.51,13.5
		c1.08,2.29,3.41,7.56,4.93,14.77C319,181.96,319.28,183.83,319.46,185.2z M264.27,254.82c-0.21-0.27-0.33-0.44-0.45-0.6
		c-2.13-2.67-4.26-5.35-6.39-8.02c-5.09-6.4-10.19-12.79-15.27-19.2c-0.28-0.35-0.55-0.41-0.94-0.36c-0.92,0.11-1.83,0.2-2.75,0.29
		c-1.27,0.12-2.53,0.23-3.8,0.35c-1.61,0.16-3.22,0.32-4.84,0.48c-1.28,0.12-2.57,0.22-3.85,0.35c-1.63,0.16-3.26,0.33-4.89,0.49
		c-1.8,0.18-3.61,0.35-5.41,0.52c-0.55,0.05-1.11,0.11-1.67,0.12c-1.08,0.01-1.9-0.84-1.94-1.92c-0.02-0.53,0.24-0.94,0.5-1.35
		c6.74-10.63,16.19-17.59,28.33-20.91c0.15-0.04,0.3-0.05,0.48-0.08c1.77,3.77,3.53,7.51,5.31,11.3c0.23-0.09,0.41-0.16,0.58-0.24
		c7.1-3.19,14.2-6.38,21.3-9.58c0.3-0.14,0.56-0.18,0.89-0.05c2.81,1.06,5.52,2.33,8.09,3.89c0.4,0.25,0.69,0.27,1.12,0.01
		c2.89-1.75,5.8-3.47,8.71-5.2c0.13-0.08,0.27-0.14,0.45-0.24c4.97,8.2,9.93,16.37,14.91,24.58c-1.95,1.17-3.85,2.3-5.74,3.43
		c0.47,1.32,0.92,2.57,1.37,3.81c0.09-0.01,0.13,0,0.15-0.02c0.12-0.1,0.24-0.21,0.34-0.32c5.81-6.07,10.27-13,13.3-20.84
		c1.95-5.04,3.22-10.25,3.79-15.63c0.22-2.03,0.34-4.06,0.38-6.1c0.02-1.03-0.05-2.06-0.07-3.08c-0.04-2.06-0.25-4.1-0.52-6.14
		c-0.38-2.85-0.95-5.66-1.75-8.43c-3.91-13.49-11.47-24.5-22.65-32.98c-10.49-7.95-22.39-12.13-35.53-12.77
		c-3.4-0.16-6.79-0.05-10.18,0.36c-2.32,0.28-4.62,0.66-6.89,1.17c-4.96,1.12-9.72,2.82-14.27,5.11
		c-8.84,4.45-16.26,10.61-22.24,18.5c-4.75,6.28-8.19,13.22-10.31,20.81c-0.88,3.17-1.54,6.39-1.87,9.68
		c-0.17,1.68-0.33,3.37-0.38,5.05c-0.05,1.65,0.02,3.31,0.06,4.97c0.04,1.94,0.26,3.86,0.53,5.77c0.44,3.2,1.12,6.34,2.08,9.42
		c4.33,13.87,12.48,24.97,24.38,33.28c9.77,6.83,20.68,10.48,32.57,11.23c2.46,0.15,4.92,0.13,7.37,0c0.54-0.03,1.08-0.06,1.62-0.12
		c1.4-0.15,2.8-0.32,4.2-0.49C263.03,255.04,263.59,254.93,264.27,254.82z M286.61,209.71c-0.17,0.08-0.25,0.12-0.32,0.16
		c-1.98,1.18-3.96,2.35-5.93,3.54c-0.71,0.43-1.32,0.97-1.84,1.61c-0.89,1.09-1.47,2.32-1.69,3.71c-0.06,0.39-0.21,0.65-0.58,0.85
		c-0.71,0.38-1.39,0.8-2.07,1.22c-0.26,0.16-0.48,0.17-0.78,0.09c-0.69-0.19-1.38-0.38-2.09-0.44c-1.66-0.14-3.22,0.25-4.65,1.1
		c-1.89,1.13-3.77,2.25-5.66,3.37c-0.11,0.07-0.21,0.16-0.31,0.23c0.36,0.82,10.95,18.19,11.27,18.46c0.17-0.1,0.35-0.2,0.53-0.3
		c1.8-1.07,3.59-2.14,5.39-3.21c2.31-1.38,4.8-1.89,7.47-1.54c0.39,0.05,0.79,0.11,1.2,0.17c0.06-0.15,0.11-0.28,0.15-0.41
		c0.88-2.86,2.62-5.04,5.19-6.57c1.8-1.07,3.59-2.14,5.39-3.21c0.17-0.1,0.34-0.22,0.54-0.35
		C294.07,222.01,290.35,215.88,286.61,209.71z M293.87,234.76c-0.19,0.1-0.32,0.15-0.43,0.22c-0.82,0.52-1.52,1.16-2.1,1.94
		c-0.75,1.01-1.25,2.13-1.43,3.38c-0.06,0.39-0.22,0.65-0.58,0.85c-0.69,0.37-1.36,0.78-2.02,1.2c-0.29,0.19-0.54,0.22-0.87,0.1
		c-0.77-0.29-1.58-0.43-2.4-0.45c-1.57-0.04-3.03,0.37-4.38,1.18c-2.81,1.68-5.63,3.35-8.44,5.03c-0.18,0.1-0.35,0.2-0.58,0.33
		c-4.98-8.21-9.94-16.38-14.91-24.58c0.2-0.13,0.34-0.22,0.49-0.31c1.02-0.61,2.04-1.21,3.06-1.82c1.9-1.13,3.8-2.28,5.71-3.39
		c2.3-1.34,4.77-1.77,7.4-1.42c0.36,0.05,0.71,0.1,1.05,0.15c0.29-0.72,0.52-1.42,0.84-2.07c0.32-0.66,0.72-1.29,1.1-1.96
		c-0.16-0.1-0.29-0.18-0.42-0.26c-1.69-0.98-3.45-1.82-5.25-2.58c-0.38-0.16-0.7-0.16-1.08,0.01c-1.83,0.85-3.68,1.66-5.52,2.49
		c-4.87,2.19-9.75,4.39-14.62,6.58c-0.15,0.07-0.29,0.16-0.44,0.24c1.22,2.49,0.24,5.12-2.16,6.26c0.12,0.17,0.23,0.34,0.36,0.5
		c7.19,9.03,14.37,18.06,21.56,27.09c0.42,0.53,0.42,0.53,1.08,0.36c6.77-1.75,13.09-4.52,18.94-8.35c2.57-1.68,5.01-3.54,7.32-5.57
		c0.22-0.19,0.31-0.37,0.21-0.68c-0.37-1.12-0.71-2.25-1.07-3.38C294.16,235.51,294.02,235.17,293.87,234.76z M243.26,217.49
		c-0.16-0.61-3.64-7.95-3.93-8.28c-5.93,1.94-11.21,5.01-15.86,9.2c-2.35,2.12-5.75,6-6.04,6.95c7.52-0.72,15.02-1.44,22.52-2.15
		C239.42,220.3,240.52,218.4,243.26,217.49z M244.12,223.04c0.69,0.04,1.29-0.5,1.33-1.19c0.03-0.67-0.54-1.28-1.22-1.31
		c-0.64-0.03-1.25,0.53-1.3,1.18C242.88,222.42,243.41,223,244.12,223.04z"/>
	<path d="M244.12,223.04c-0.7-0.04-1.23-0.63-1.19-1.32c0.04-0.65,0.65-1.2,1.3-1.18c0.68,0.03,1.25,0.64,1.22,1.31
		C245.41,222.55,244.81,223.08,244.12,223.04z"/>
	<path class="st0" d="M270.44,186.22c-1.25,0-2.42,0-3.65,0c-0.02-0.17-0.04-0.32-0.04-0.47c0-5.95,0-11.89-0.01-17.84
		c0-0.35,0.13-0.54,0.42-0.69c0.6-0.32,1.18-0.67,1.77-1.01c0.49-0.28,0.49-0.29,0.25-0.81c-1.43-3.2-3.07-6.29-4.91-9.28
		c-3.15-5.11-6.81-9.82-10.91-14.2c-0.12-0.12-0.24-0.23-0.4-0.38c-0.4,0.43-0.78,0.82-1.14,1.21c-6.12,6.7-11.19,14.11-14.93,22.4
		c-0.37,0.82-0.43,0.72,0.38,1.18c0.53,0.31,1.05,0.62,1.59,0.91c0.24,0.13,0.37,0.3,0.34,0.58c-0.01,0.1,0,0.21,0,0.31
		c0,5.77,0,11.54,0,17.32c0,0.8,0,0.8-0.81,0.8c-0.73,0-1.47,0-2.2,0c-0.19,0-0.38-0.02-0.63-0.03c-0.01-0.25-0.02-0.47-0.02-0.69
		c0-5.06,0-10.11,0-15.17c0-0.93,0.14-0.72-0.69-1.21c-0.39-0.23-0.79-0.45-1.18-0.68c-1.1-0.64-1.46-1.69-0.96-2.86
		c1.33-3.11,2.82-6.14,4.49-9.08c3.36-5.91,7.41-11.31,11.99-16.32c0.15-0.16,0.3-0.33,0.46-0.52c-0.9-1.18-1.33-2.45-1-3.89
		c0.23-1.02,0.76-1.87,1.59-2.51c1.71-1.33,4.13-1.25,5.73,0.18c0.9,0.81,1.38,1.83,1.46,3.03c0.08,1.18-0.32,2.22-1.1,3.17
		c0.15,0.17,0.27,0.33,0.41,0.48c4,4.37,7.6,9.05,10.7,14.1c2.23,3.63,4.12,7.43,5.83,11.33c0.54,1.23-0.02,2.42-0.97,2.91
		c-0.45,0.23-0.87,0.53-1.32,0.74c-0.4,0.19-0.53,0.45-0.53,0.89c0.02,3.17,0.01,6.35,0.01,9.52c0,1.95,0,3.91,0,5.86
		C270.44,185.72,270.44,185.93,270.44,186.22z M254.18,136.8c0.02-0.67-0.49-1.21-1.16-1.22c-0.69-0.02-1.21,0.48-1.23,1.15
		c-0.02,0.69,0.47,1.2,1.15,1.22C253.63,137.95,254.16,137.46,254.18,136.8z"/>
	<path class="st0" d="M249.97,188.81c-0.32-0.37-0.61-0.67-0.87-0.99c-0.33-0.42-0.64-0.87-0.97-1.3c-0.19-0.26-0.25-0.55-0.25-0.88
		c0.01-2.34,0.01-4.67,0.01-7.01c0-0.21,0-0.41,0-0.68c-2.2-0.17-4.36-0.15-6.57-0.28c0.04-1.23,0.08-2.4,0.12-3.62
		c3.4,0.15,6.73,0.23,10.14,0.38c0,0.28,0,0.48,0,0.69c0,3.07,0.01,6.14-0.01,9.21c0,0.38,0.11,0.65,0.39,0.91
		c1.64,1.54,3.49,2.78,5.45,3.86c3.04,1.66,6.24,2.93,9.53,3.97c2.11,0.67,4.24,1.26,6.36,1.88c0.69,0.2,1.07,0.61,1.12,1.21
		c0.05,0.71-0.36,1.51-0.94,1.73c-0.2,0.08-0.45,0.09-0.66,0.05c-1.22-0.21-2.44-0.4-3.64-0.68c-4.36-0.99-8.51-2.62-12.6-4.4
		c-0.94-0.41-1.88-0.83-2.82-1.25c-0.19-0.09-0.36-0.18-0.58-0.03c-1.68,1.09-3.53,1.8-5.37,2.55c-3.21,1.3-6.47,2.48-9.83,3.34
		c-1.87,0.48-3.77,0.82-5.69,1.08c-0.18,0.02-0.39-0.02-0.55-0.1c-0.67-0.3-1.1-1.31-0.87-2c0.17-0.52,0.55-0.82,1.08-0.95
		c1.37-0.34,2.73-0.69,4.09-1.06c3.68-1.02,7.3-2.21,10.75-3.87c0.89-0.43,1.76-0.92,2.63-1.39
		C249.6,189.07,249.75,188.96,249.97,188.81z"/>
	<path class="st0" d="M240.79,200.2c1.1-0.4,2.11-0.76,3.15-1.14c0.08,0.14,0.15,0.25,0.21,0.37c1.18,2.65,3.04,4.69,5.5,6.2
		c1.07,0.66,2.22,1.08,3.5,1.04c0.82-0.03,1.58-0.25,2.31-0.59c1.81-0.84,3.26-2.13,4.51-3.65c0.83-1,1.5-2.09,2-3.36
		c1.07,0.32,2.09,0.72,3.18,1.12c-0.15,0.39-0.26,0.73-0.41,1.06c-0.98,2.22-2.45,4.09-4.23,5.72c-1.47,1.35-3.1,2.48-4.97,3.23
		c-1.7,0.68-3.38,0.69-5.09,0.01c-1.66-0.66-3.12-1.61-4.47-2.77c-1.87-1.61-3.44-3.46-4.53-5.69
		C241.22,201.28,241.04,200.77,240.79,200.2z"/>
	<path class="st0" d="M255.81,178.13c-0.07-1.21-0.16-2.39-0.18-3.63c2.97-0.15,5.88-0.3,8.84-0.45c0.07,1.2,0.14,2.36,0.21,3.59
		c-0.26,0.04-0.51,0.09-0.77,0.1c-1.7,0.08-3.41,0.15-5.11,0.24c-0.89,0.04-1.77,0.11-2.66,0.16
		C256.06,178.13,255.97,178.13,255.81,178.13z"/>
	<path class="st0" d="M254.18,136.8c-0.02,0.67-0.55,1.15-1.23,1.14c-0.68-0.01-1.17-0.53-1.15-1.22c0.02-0.67,0.54-1.16,1.23-1.15
		C253.69,135.59,254.2,136.13,254.18,136.8z"/>
</g>
</svg>
